# xmcd CD database file
#
# Track frame offsets:
#	150
#	31674
#	49031
#	67078
#	85610
#	99190
#	124103
#	148531
#	163650
#	181801
#
# Disc length: 2592 seconds
#
# Revision: 2
# Processed by: cddbd v1.5.2PL0 Copyright (c) Steve Scherf et al.
# Submitted via: CDex 1.51
#
DISCID=770a1e0a
DTITLE=Chet Baker - Vol.09 - My Funny Valentine
DYEAR=1900
DGENRE=Jazz
TTITLE0=Slightly Above Moderate
TTITLE1=Halema
TTITLE2=Revelation
TTITLE3=Something For Liza
TTITLE4=Worryin' The Live Out Of Me
TTITLE5=Medium Rock
TTITLE6=To Mickey's Memory  (alt.Take)
TTITLE7=Chippyin'
TTITLE8=Pawnee Junction
TTITLE9=Line For Lyons
EXTD=
EXTT0=
EXTT1=
EXTT2=
EXTT3=
EXTT4=
EXTT5=
EXTT6=
EXTT7=
EXTT8=
EXTT9=
PLAYORDER=
